<?xml version="1.0" encoding="UTF-8"?>
<svg xmlns="http://www.w3.org/2000/svg" xmlns:xlink="http://www.w3.org/1999/xlink" width="365pt" height="365.49pt" viewBox="0 0 365 365.49" version="1.1">
<defs>
<clipPath id="clip1">
  <path d="M 0 0 L 365 0 L 365 365.488281 L 0 365.488281 Z M 0 0 "/>
</clipPath>
</defs>
<g id="surface1">
<path style=" stroke:none;fill-rule:nonzero;fill:rgb(4.699707%,59.999084%,28.199768%);fill-opacity:1;" d="M 184.046875 17.894531 L 19.074219 183.089844 L 183.359375 347.59375 L 348.332031 182.398438 L 184.046875 17.894531 "/>
<path style=" stroke:none;fill-rule:nonzero;fill:rgb(0.799561%,0.799561%,0.799561%);fill-opacity:1;" d="M 184.046875 17.894531 L 183.8125 17.660156 L 18.609375 183.089844 L 183.359375 348.058594 L 348.796875 182.398438 L 184.046875 17.429688 L 183.8125 17.660156 L 184.046875 17.894531 L 183.8125 18.128906 L 347.867188 182.398438 L 183.359375 347.128906 L 19.539063 183.089844 L 184.28125 18.128906 L 184.046875 17.894531 L 183.8125 18.128906 L 184.046875 17.894531 "/>
<path style=" stroke:none;fill-rule:nonzero;fill:rgb(54.098511%,79.199219%,52.89917%);fill-opacity:1;" d="M 183.359375 18.582031 L 183.359375 4.128906 L 3.953125 183.777344 L 19.074219 183.777344 L 183.359375 18.582031 "/>
<path style=" stroke:none;fill-rule:nonzero;fill:rgb(0.799561%,0.799561%,0.799561%);fill-opacity:1;" d="M 183.359375 18.582031 L 183.6875 18.582031 L 183.6875 3.332031 L 3.15625 184.105469 L 19.210938 184.105469 L 183.6875 18.71875 L 183.6875 18.582031 L 183.359375 18.582031 L 183.125 18.351563 L 18.9375 183.445313 L 4.746094 183.445313 L 183.03125 4.925781 L 183.03125 18.582031 L 183.359375 18.582031 L 183.125 18.351563 L 183.359375 18.582031 "/>
<path style=" stroke:none;fill-rule:nonzero;fill:rgb(46.699524%,75.299072%,26.298523%);fill-opacity:1;" d="M 182.945313 18.582031 L 182.945313 4.128906 L 362.355469 183.777344 L 347.230469 183.777344 L 182.945313 18.582031 "/>
<path style=" stroke:none;fill-rule:nonzero;fill:rgb(0.799561%,0.799561%,0.799561%);fill-opacity:1;" d="M 182.945313 18.582031 L 183.277344 18.582031 L 183.277344 4.925781 L 361.558594 183.445313 L 347.367188 183.445313 L 183.179688 18.351563 L 182.945313 18.582031 L 183.277344 18.582031 L 182.945313 18.582031 L 182.714844 18.816406 L 347.09375 184.105469 L 363.148438 184.105469 L 182.617188 3.332031 L 182.617188 18.71875 L 182.714844 18.816406 L 182.945313 18.582031 "/>
<path style=" stroke:none;fill-rule:nonzero;fill:rgb(6.698608%,49.398804%,24.699402%);fill-opacity:1;" d="M 183.359375 348.558594 L 183.359375 363.011719 L 3.953125 183.363281 L 19.074219 183.363281 L 183.359375 348.558594 "/>
<path style=" stroke:none;fill-rule:nonzero;fill:rgb(0.799561%,0.799561%,0.799561%);fill-opacity:1;" d="M 183.359375 348.558594 L 183.03125 348.558594 L 183.03125 362.214844 L 4.746094 183.691406 L 18.9375 183.691406 L 183.125 348.789063 L 183.359375 348.558594 L 183.03125 348.558594 L 183.359375 348.558594 L 183.59375 348.324219 L 19.210938 183.035156 L 3.15625 183.035156 L 183.6875 363.808594 L 183.6875 348.421875 L 183.59375 348.324219 L 183.359375 348.558594 "/>
<path style=" stroke:none;fill-rule:nonzero;fill:rgb(0.799561%,0.799561%,0.799561%);fill-opacity:1;" d="M 37.234375 22.371094 L 37.234375 28.960938 L 150.183594 28.960938 L 153.375 32.15625 L 153.375 48.730469 L 151.257813 51.3125 L 135.148438 51.3125 L 135.148438 181.234375 L 266.65625 51.3125 L 235.503906 51.3125 L 232.898438 48.503906 L 232.898438 31.109375 L 234.707031 29.449219 L 346.550781 29.449219 L 348.523438 31.425781 L 348.523438 47.4375 L 87.433594 315.59375 L 61.847656 315.59375 L 57.945313 313.339844 L 57.945313 50.339844 L 39.480469 50.339844 L 37.992188 48.847656 L 37.992188 31.273438 L 43.824219 24.945313 L 43.824219 22.371094 L 37.234375 22.371094 L 37.234375 28.960938 L 37.234375 22.371094 L 30.648438 22.371094 L 37.234375 22.371094 L 32.390625 17.90625 L 24.8125 26.128906 L 24.8125 54.300781 L 34.019531 63.519531 L 44.769531 63.519531 L 44.769531 320.941406 L 58.3125 328.773438 L 92.996094 328.773438 L 361.703125 52.792969 L 361.703125 25.972656 L 352.011719 16.269531 L 229.578125 16.269531 L 219.722656 25.316406 L 219.722656 53.675781 L 229.753906 64.492188 L 234.566406 64.492188 L 148.324219 149.695313 L 148.324219 64.492188 L 157.492188 64.492188 L 166.554688 53.445313 L 166.554688 26.703125 L 155.648438 15.785156 L 30.648438 15.785156 L 30.648438 22.371094 L 37.234375 22.371094 "/>
<path style=" stroke:none;fill-rule:nonzero;fill:rgb(9.399414%,36.898804%,18.399048%);fill-opacity:1;" d="M 182.945313 348.558594 L 182.945313 363.011719 L 362.355469 183.363281 L 347.230469 183.363281 L 182.945313 348.558594 "/>
<path style=" stroke:none;fill-rule:nonzero;fill:rgb(0.799561%,0.799561%,0.799561%);fill-opacity:1;" d="M 182.945313 348.558594 L 182.617188 348.558594 L 182.617188 363.808594 L 363.148438 183.035156 L 347.09375 183.035156 L 182.617188 348.421875 L 182.617188 348.558594 L 182.945313 348.558594 L 183.179688 348.789063 L 347.367188 183.691406 L 361.558594 183.691406 L 183.277344 362.214844 L 183.277344 348.558594 L 182.945313 348.558594 L 183.179688 348.789063 L 182.945313 348.558594 "/>
<g clip-path="url(#clip1)" clip-rule="nonzero">
<path style=" stroke:none;fill-rule:nonzero;fill:rgb(0.799561%,0.799561%,0.799561%);fill-opacity:1;" d="M 182.875 2.796875 L 181.476563 1.398438 L 0 183.121094 L 182.125 365.488281 L 365 182.367188 L 182.875 0 L 181.476563 1.398438 L 182.875 2.796875 L 181.476563 4.191406 L 359.414063 182.367188 L 182.125 359.894531 L 5.585938 183.121094 L 184.273438 4.191406 L 182.875 2.796875 L 181.476563 4.191406 L 182.875 2.796875 "/>
</g>
<path style=" stroke:none;fill-rule:nonzero;fill:rgb(100%,100%,100%);fill-opacity:1;" d="M 154.144531 33.382813 L 160.675781 29.941406 L 153.972656 23.230469 L 37.289063 23.230469 L 31.363281 29.164063 L 31.363281 51.621094 L 37.933594 58.203125 L 41.070313 51.621094 L 36.945313 47.492188 L 36.945313 31.660156 L 40.039063 28.90625 L 151.394531 28.90625 L 154.144531 33.382813 "/>
<path style=" stroke:none;fill-rule:nonzero;fill:rgb(0.799561%,0.799561%,0.799561%);fill-opacity:1;" d="M 154.144531 33.382813 L 154.300781 33.671875 L 161.222656 30.023438 L 154.109375 22.898438 L 37.152344 22.898438 L 31.03125 29.027344 L 31.03125 51.757813 L 38.03125 58.765625 L 41.46875 51.554688 L 37.277344 47.355469 L 37.277344 31.808594 L 40.164063 29.238281 L 151.210938 29.238281 L 154.175781 34.058594 L 154.441406 33.527344 L 154.144531 33.382813 L 154.300781 33.671875 L 154.144531 33.382813 L 153.851563 33.234375 L 154.144531 33.382813 L 154.425781 33.210938 L 151.578125 28.578125 L 39.914063 28.578125 L 36.617188 31.511719 L 36.617188 47.628906 L 40.671875 51.691406 L 37.839844 57.640625 L 31.691406 51.484375 L 31.691406 29.300781 L 37.425781 23.558594 L 153.835938 23.558594 L 160.128906 29.855469 L 153.898438 33.140625 L 153.851563 33.234375 L 154.144531 33.382813 "/>
<path style=" stroke:none;fill-rule:nonzero;fill:rgb(0.799561%,0.799561%,0.799561%);fill-opacity:1;" d="M 236.640625 28.214844 L 236.394531 27.96875 L 232.171875 32.195313 L 232.171875 47.632813 L 235.984375 51.449219 L 254.847656 51.449219 L 254.847656 65.59375 L 129.417969 192.898438 L 129.417969 51.628906 L 150.175781 51.628906 L 154.679688 47.117188 L 154.679688 31.476563 L 150.480469 28.226563 L 39.910156 28.226563 L 36.09375 32.046875 L 36.09375 47.992188 L 39.96875 51.871094 L 58.953125 51.871094 L 58.953125 314.015625 L 62.765625 317.832031 L 84.859375 317.832031 L 349.371094 44.527344 L 349.371094 32.195313 L 345.046875 27.867188 L 236.496094 27.867188 L 236.394531 27.96875 L 236.640625 28.214844 L 236.640625 28.5625 L 344.757813 28.5625 L 348.675781 32.484375 L 348.675781 44.246094 L 84.5625 317.136719 L 63.050781 317.136719 L 59.648438 313.726563 L 59.648438 51.175781 L 40.257813 51.175781 L 36.792969 47.703125 L 36.792969 32.335938 L 40.199219 28.925781 L 150.242188 28.925781 L 153.980469 31.820313 L 153.980469 46.832031 L 149.886719 50.933594 L 128.722656 50.933594 L 128.722656 194.597656 L 255.542969 65.878906 L 255.542969 50.753906 L 236.273438 50.753906 L 232.867188 47.34375 L 232.867188 32.484375 L 236.886719 28.460938 L 236.640625 28.214844 L 236.640625 28.5625 L 236.640625 28.214844 "/>
<path style=" stroke:none;fill-rule:nonzero;fill:rgb(100%,100%,100%);fill-opacity:1;" d="M 59.109375 51.089844 L 59.109375 313.910156 L 62.511719 317.804688 L 59.84375 322.894531 L 52.304688 315.371094 L 52.304688 57.902344 L 59.109375 51.089844 "/>
<path style=" stroke:none;fill-rule:nonzero;fill:rgb(0.799561%,0.799561%,0.799561%);fill-opacity:1;" d="M 59.109375 51.089844 L 58.777344 51.089844 L 58.777344 314.035156 L 62.113281 317.851563 L 59.757813 322.347656 L 52.632813 315.234375 L 52.632813 58.039063 L 59.339844 51.320313 L 59.109375 51.089844 L 58.777344 51.089844 L 59.109375 51.089844 L 58.875 50.855469 L 51.972656 57.765625 L 51.972656 315.507813 L 59.925781 323.445313 L 62.90625 317.757813 L 59.4375 313.785156 L 59.4375 50.292969 L 58.875 50.855469 L 59.109375 51.089844 "/>
<path style=" stroke:none;fill-rule:nonzero;fill:rgb(50.19989%,50.59967%,50.59967%);fill-opacity:1;" d="M 40.257813 51.089844 L 38.3125 57.414063 L 52.40625 57.414063 L 60.183594 51.089844 L 40.257813 51.089844 "/>
<path style=" stroke:none;fill-rule:nonzero;fill:rgb(0.799561%,0.799561%,0.799561%);fill-opacity:1;" d="M 40.257813 51.089844 L 39.941406 50.992188 L 37.867188 57.746094 L 52.523438 57.746094 L 61.113281 50.761719 L 40.011719 50.761719 L 39.941406 50.992188 L 40.257813 51.089844 L 40.257813 51.417969 L 59.257813 51.417969 L 52.289063 57.085938 L 38.757813 57.085938 L 40.570313 51.1875 L 40.257813 51.089844 L 40.257813 51.417969 L 40.257813 51.089844 "/>
<path style=" stroke:none;fill-rule:nonzero;fill:rgb(100%,100%,100%);fill-opacity:1;" d="M 140.289063 166.460938 L 129.054688 193.757813 L 255.878906 66.421875 L 255.878906 51.277344 Z M 233.882813 58.195313 L 236.976563 51.828125 L 232.507813 47.699219 L 232.507813 33.589844 L 237.664063 28.425781 L 345.238281 28.425781 L 349.363281 33.933594 L 355.203125 29.800781 L 349.191406 23.78125 L 233.539063 23.78125 L 227.78125 29.546875 L 227.78125 52.171875 L 233.753906 57.808594 "/>
<path style=" stroke:none;fill-rule:nonzero;fill:rgb(0.799561%,0.799561%,0.799561%);fill-opacity:1;" d="M 140.289063 166.460938 L 139.984375 166.335938 L 128.75 193.632813 L 129.289063 193.988281 L 256.207031 66.558594 L 256.207031 50.484375 L 140.058594 166.226563 L 140.289063 166.460938 L 140.289063 166.132813 L 140.070313 166.132813 L 139.984375 166.335938 L 140.289063 166.460938 L 140.289063 166.789063 L 140.425781 166.789063 L 255.550781 52.070313 L 255.550781 66.285156 L 129.992188 192.351563 L 140.59375 166.585938 L 140.289063 166.460938 L 140.289063 166.789063 Z M 234.179688 58.339844 L 237.378906 51.753906 L 232.835938 47.554688 L 232.835938 33.726563 L 237.800781 28.753906 L 345.074219 28.753906 L 349.289063 34.386719 L 355.714844 29.847656 L 349.328125 23.449219 L 233.402344 23.449219 L 227.453125 29.40625 L 227.453125 52.316406 L 233.527344 58.046875 L 233.980469 57.570313 L 228.109375 52.03125 L 228.109375 29.679688 L 233.675781 24.109375 L 349.054688 24.109375 L 354.695313 29.757813 L 349.433594 33.476563 L 345.402344 28.097656 L 237.527344 28.097656 L 232.179688 33.453125 L 232.179688 47.84375 L 236.570313 51.902344 L 233.585938 58.050781 L 234.179688 58.339844 "/>
<path style=" stroke:none;fill-rule:nonzero;fill:rgb(50.19989%,50.59967%,50.59967%);fill-opacity:1;" d="M 153.886719 32.59375 L 159.476563 28.945313 L 159.476563 51.089844 L 153.035156 57.539063 L 140.523438 57.539063 L 140.523438 166.683594 L 129.097656 193.695313 L 129.097656 51.089844 L 150 51.089844 L 153.886719 47.925781 L 153.886719 32.59375 "/>
<path style=" stroke:none;fill-rule:nonzero;fill:rgb(0.799561%,0.799561%,0.799561%);fill-opacity:1;" d="M 153.886719 32.59375 L 154.066406 32.871094 L 159.148438 29.550781 L 159.148438 50.953125 L 152.902344 57.207031 L 140.191406 57.207031 L 140.191406 166.613281 L 129.429688 192.070313 L 129.429688 51.417969 L 150.117188 51.417969 L 154.21875 48.082031 L 154.21875 32.59375 L 153.886719 32.59375 L 153.605469 32.761719 L 153.78125 33.058594 L 154.066406 32.871094 L 153.886719 32.59375 L 154.171875 32.425781 L 153.558594 31.40625 L 153.558594 47.769531 L 149.882813 50.761719 L 128.769531 50.761719 L 128.769531 193.695313 L 129.402344 193.820313 L 140.851563 166.746094 L 140.851563 57.867188 L 153.175781 57.867188 L 159.808594 51.226563 L 159.808594 28.335938 L 153.707031 32.316406 L 153.886719 32.59375 L 154.171875 32.425781 L 153.886719 32.59375 "/>
<path style=" stroke:none;fill-rule:nonzero;fill:rgb(79.998779%,79.998779%,79.998779%);fill-opacity:1;" d="M 236.640625 28.214844 L 232.519531 32.339844 L 232.519531 47.488281 L 236.128906 51.101563 L 255.195313 51.101563 L 255.195313 65.734375 L 129.070313 193.746094 L 129.070313 51.28125 L 150.03125 51.28125 L 154.328125 46.976563 L 154.328125 31.648438 L 150.359375 28.574219 L 40.050781 28.574219 L 36.445313 32.191406 L 36.445313 47.847656 L 40.113281 51.523438 L 59.300781 51.523438 L 59.300781 313.871094 L 62.90625 317.484375 L 84.710938 317.484375 L 349.023438 44.386719 L 349.023438 32.339844 L 344.902344 28.214844 L 236.640625 28.214844 "/>
<path style=" stroke:none;fill-rule:nonzero;fill:rgb(0.799561%,0.799561%,0.799561%);fill-opacity:1;" d="M 236.640625 28.214844 L 236.394531 27.96875 L 232.171875 32.195313 L 232.171875 47.632813 L 235.984375 51.449219 L 254.847656 51.449219 L 254.847656 65.59375 L 129.417969 192.898438 L 129.417969 51.628906 L 150.175781 51.628906 L 154.679688 47.117188 L 154.679688 31.476563 L 150.480469 28.226563 L 39.910156 28.226563 L 36.09375 32.046875 L 36.09375 47.992188 L 39.96875 51.871094 L 58.953125 51.871094 L 58.953125 314.015625 L 62.765625 317.832031 L 84.859375 317.832031 L 349.371094 44.527344 L 349.371094 32.195313 L 345.046875 27.867188 L 236.496094 27.867188 L 236.394531 27.96875 L 236.640625 28.214844 L 236.640625 28.5625 L 344.757813 28.5625 L 348.675781 32.484375 L 348.675781 44.246094 L 84.5625 317.136719 L 63.050781 317.136719 L 59.648438 313.726563 L 59.648438 51.175781 L 40.257813 51.175781 L 36.792969 47.703125 L 36.792969 32.335938 L 40.199219 28.925781 L 150.242188 28.925781 L 153.980469 31.820313 L 153.980469 46.832031 L 149.886719 50.933594 L 128.722656 50.933594 L 128.722656 194.597656 L 255.542969 65.878906 L 255.542969 50.753906 L 236.273438 50.753906 L 232.867188 47.34375 L 232.867188 32.484375 L 236.886719 28.460938 L 236.640625 28.214844 L 236.640625 28.5625 L 236.640625 28.214844 "/>
<path style=" stroke:none;fill-rule:nonzero;fill:rgb(50.19989%,50.59967%,50.59967%);fill-opacity:1;" d="M 349.363281 32.695313 L 355.234375 29.300781 L 355.234375 50.589844 L 88.976563 323.027344 L 60.710938 323.027344 L 63.410156 317.652344 L 85.0625 317.652344 L 349.019531 44.738281 L 349.363281 32.695313 "/>
<path style=" stroke:none;fill-rule:nonzero;fill:rgb(0.799561%,0.799561%,0.799561%);fill-opacity:1;" d="M 349.363281 32.695313 L 349.527344 32.980469 L 354.902344 29.871094 L 354.902344 50.453125 L 88.839844 322.695313 L 61.246094 322.695313 L 63.613281 317.980469 L 85.203125 317.980469 L 349.34375 44.875 L 349.691406 32.703125 L 349.363281 32.695313 L 349.527344 32.980469 L 349.363281 32.695313 L 349.03125 32.683594 L 348.691406 44.601563 L 84.921875 317.324219 L 63.207031 317.324219 L 60.175781 323.355469 L 89.117188 323.355469 L 355.5625 50.722656 L 355.5625 28.730469 L 349.039063 32.5 L 349.03125 32.683594 L 349.363281 32.695313 "/>
<path style=" stroke:none;fill-rule:nonzero;fill:rgb(50.19989%,50.59967%,50.59967%);fill-opacity:1;" d="M 255.351563 51.453125 L 249.398438 57.660156 L 233.84375 57.660156 L 237.488281 51.453125 C 237.609375 51.453125 255.351563 51.453125 255.351563 51.453125 "/>
<path style=" stroke:none;fill-rule:nonzero;fill:rgb(0.799561%,0.799561%,0.799561%);fill-opacity:1;" d="M 255.351563 51.453125 L 255.113281 51.226563 L 249.257813 57.328125 L 234.417969 57.328125 L 237.773438 51.621094 L 237.488281 51.453125 L 237.488281 51.78125 C 237.609375 51.78125 255.351563 51.78125 255.351563 51.78125 L 255.351563 51.453125 L 255.113281 51.226563 L 255.351563 51.453125 L 255.351563 51.125 C 255.351563 51.125 250.914063 51.125 246.464844 51.125 C 242.015625 51.125 237.550781 51.125 237.488281 51.125 L 237.300781 51.125 L 233.269531 57.988281 L 249.539063 57.988281 L 256.125 51.125 L 255.351563 51.125 L 255.351563 51.453125 "/>
<path style=" stroke:none;fill-rule:nonzero;fill:rgb(79.998779%,79.998779%,79.998779%);fill-opacity:1;" d="M 269.628906 245.707031 C 269.371094 245.761719 269.140625 245.898438 268.96875 246.097656 L 261.992188 253.988281 L 250.894531 253.988281 L 243.496094 246.308594 C 243.273438 246.082031 242.972656 245.949219 242.652344 245.949219 L 216.160156 245.949219 C 215.660156 245.949219 215.21875 246.261719 215.046875 246.730469 L 212.609375 254.019531 C 212.402344 254.640625 212.738281 255.3125 213.359375 255.523438 C 213.476563 255.5625 213.601563 255.582031 213.722656 255.585938 L 220.820313 255.585938 L 198.746094 320.71875 C 198.539063 321.34375 198.875 322.015625 199.496094 322.222656 C 199.613281 322.261719 199.734375 322.285156 199.859375 322.285156 L 228.070313 322.285156 C 228.566406 322.285156 229.011719 321.972656 229.183594 321.503906 L 231.347656 315.148438 C 231.554688 314.527344 231.222656 313.851563 230.597656 313.644531 C 230.480469 313.605469 230.359375 313.585938 230.234375 313.582031 L 225.300781 313.582031 L 239.375 269.226563 L 264.847656 269.226563 L 248.789063 320.75 C 248.597656 321.378906 248.949219 322.042969 249.578125 322.234375 C 249.691406 322.269531 249.8125 322.285156 249.933594 322.285156 L 277.148438 322.285156 C 277.621094 322.28125 278.046875 321.996094 278.230469 321.5625 L 280.667969 315.722656 C 280.90625 315.109375 280.609375 314.421875 280 314.179688 C 279.867188 314.125 279.726563 314.097656 279.585938 314.09375 L 274.652344 314.09375 L 288.96875 268.984375 L 313.207031 268.984375 L 296.90625 320.75 C 296.714844 321.378906 297.066406 322.042969 297.691406 322.234375 C 297.808594 322.269531 297.929688 322.285156 298.050781 322.285156 L 327.941406 322.285156 C 328.433594 322.289063 328.875 321.988281 329.054688 321.53125 L 331.488281 315.179688 C 331.714844 314.5625 331.398438 313.878906 330.78125 313.65625 C 330.652344 313.605469 330.515625 313.582031 330.378906 313.582031 L 324.453125 313.582031 L 342.46875 255.011719 C 342.585938 254.644531 342.519531 254.238281 342.285156 253.929688 L 336.691406 246.398438 C 336.460938 246.105469 336.105469 245.9375 335.730469 245.949219 L 314.347656 245.949219 C 314.019531 245.941406 313.703125 246.074219 313.476563 246.308594 L 306.738281 253.71875 L 294.949219 253.71875 L 287.972656 246.066406 C 287.746094 245.832031 287.429688 245.703125 287.101563 245.707031 L 269.871094 245.707031 C 269.789063 245.699219 269.710938 245.699219 269.628906 245.707031 Z M 162.929688 245.464844 C 162.488281 245.5625 162.140625 245.898438 162.027344 246.339844 L 160.074219 254.109375 C 159.914063 254.746094 160.300781 255.390625 160.9375 255.550781 C 161.027344 255.570313 161.121094 255.585938 161.21875 255.585938 L 170.507813 255.585938 L 147.472656 321.441406 C 147.265625 322.0625 147.601563 322.738281 148.222656 322.945313 C 148.339844 322.984375 148.460938 323.007813 148.585938 323.007813 L 182.117188 323.007813 C 182.636719 323.015625 183.097656 322.6875 183.261719 322.195313 L 185.457031 315.117188 C 185.648438 314.492188 185.296875 313.828125 184.667969 313.636719 C 184.554688 313.597656 184.433594 313.582031 184.3125 313.582031 L 176.734375 313.582031 L 199.53125 247.03125 C 199.738281 246.410156 199.402344 245.734375 198.78125 245.527344 C 198.664063 245.488281 198.539063 245.46875 198.417969 245.464844 L 163.171875 245.464844 C 163.089844 245.457031 163.011719 245.457031 162.929688 245.464844 Z M 191.859375 205.054688 C 191.660156 205.097656 191.472656 205.1875 191.320313 205.324219 L 186.207031 209.722656 C 186.054688 209.859375 185.941406 210.035156 185.878906 210.234375 L 180.765625 224.566406 C 180.609375 224.996094 180.714844 225.476563 181.035156 225.800781 L 184.945313 229.71875 C 185.171875 229.933594 185.472656 230.054688 185.785156 230.046875 L 201.574219 230.046875 C 201.886719 230.054688 202.191406 229.933594 202.417969 229.71875 L 206.535156 225.5625 C 206.679688 225.417969 206.78125 225.242188 206.835938 225.050781 L 211.226563 209.964844 C 211.351563 209.546875 211.234375 209.09375 210.925781 208.789063 L 207.527344 205.386719 C 207.304688 205.167969 207 205.050781 206.6875 205.054688 L 192.101563 205.054688 C 192.023438 205.046875 191.941406 205.046875 191.859375 205.054688 "/>
<path style=" stroke:none;fill-rule:nonzero;fill:rgb(0.799561%,0.799561%,0.799561%);fill-opacity:1;" d="M 269.628906 245.707031 L 269.0625 242.976563 C 268.199219 243.15625 267.421875 243.617188 266.847656 244.289063 L 268.96875 246.097656 L 266.882813 244.253906 L 260.734375 251.199219 L 252.078125 251.199219 L 245.503906 244.375 L 245.5 244.371094 C 244.761719 243.605469 243.742188 243.171875 242.679688 243.160156 L 216.152344 243.160156 C 214.484375 243.164063 212.996094 244.214844 212.425781 245.78125 L 212.414063 245.816406 L 209.96875 253.136719 L 209.96875 253.132813 C 209.832031 253.546875 209.761719 253.976563 209.761719 254.394531 C 209.761719 255.230469 210.023438 256.027344 210.492188 256.691406 C 210.957031 257.355469 211.648438 257.890625 212.472656 258.164063 C 212.867188 258.296875 213.277344 258.367188 213.695313 258.371094 L 216.933594 258.371094 L 196.105469 319.832031 L 196.105469 319.835938 C 195.96875 320.246094 195.898438 320.675781 195.898438 321.097656 C 195.898438 321.933594 196.160156 322.730469 196.628906 323.390625 C 197.09375 324.054688 197.785156 324.589844 198.609375 324.867188 C 199.003906 324.996094 199.414063 325.066406 199.832031 325.070313 L 228.074219 325.070313 C 229.746094 325.066406 231.234375 324.019531 231.800781 322.453125 L 231.8125 322.425781 L 233.988281 316.039063 L 233.988281 316.03125 C 234.128906 315.621094 234.195313 315.191406 234.195313 314.769531 C 234.195313 313.933594 233.933594 313.136719 233.464844 312.476563 C 233 311.8125 232.308594 311.277344 231.484375 311.003906 C 231.09375 310.871094 230.679688 310.800781 230.261719 310.796875 L 229.109375 310.796875 L 241.414063 272.011719 L 261.0625 272.011719 L 246.125 319.929688 L 246.125 319.933594 C 246.007813 320.316406 245.949219 320.710938 245.949219 321.097656 C 245.949219 321.953125 246.226563 322.769531 246.710938 323.4375 C 247.195313 324.105469 247.914063 324.640625 248.761719 324.898438 C 249.136719 325.015625 249.53125 325.070313 249.925781 325.070313 L 249.9375 325.070313 L 249.925781 322.453125 L 249.84375 325.070313 C 249.90625 325.074219 249.9375 325.070313 249.9375 325.070313 L 249.925781 322.453125 L 249.84375 325.070313 L 277.171875 325.070313 C 278.753906 325.058594 280.175781 324.109375 280.796875 322.652344 L 280.800781 322.640625 L 283.25 316.769531 L 283.257813 316.746094 C 283.445313 316.273438 283.539063 315.773438 283.535156 315.28125 C 283.535156 314.488281 283.300781 313.726563 282.871094 313.078125 C 282.441406 312.429688 281.800781 311.894531 281.03125 311.589844 C 280.585938 311.410156 280.109375 311.316406 279.632813 311.308594 L 278.460938 311.308594 L 291.007813 271.773438 L 309.40625 271.773438 L 294.246094 319.921875 L 294.242188 319.933594 C 294.125 320.316406 294.066406 320.710938 294.066406 321.097656 C 294.066406 321.953125 294.34375 322.769531 294.828125 323.4375 C 295.3125 324.105469 296.03125 324.640625 296.878906 324.898438 C 297.253906 325.015625 297.648438 325.070313 298.039063 325.070313 L 298.054688 325.070313 L 298.042969 322.457031 L 297.960938 325.070313 L 298.054688 325.070313 L 298.042969 322.457031 L 297.960938 325.070313 L 327.949219 325.070313 C 329.585938 325.070313 331.050781 324.070313 331.648438 322.554688 L 331.652344 322.539063 L 334.101563 316.15625 L 334.109375 316.132813 C 334.269531 315.691406 334.347656 315.226563 334.347656 314.769531 C 334.347656 313.953125 334.101563 313.175781 333.652344 312.519531 C 333.203125 311.867188 332.539063 311.328125 331.742188 311.039063 C 331.304688 310.878906 330.84375 310.796875 330.382813 310.796875 L 328.226563 310.796875 L 345.128906 255.832031 L 342.46875 255.011719 L 345.117188 255.875 C 345.246094 255.472656 345.3125 255.054688 345.3125 254.644531 C 345.3125 253.792969 345.039063 252.949219 344.511719 252.253906 L 344.523438 252.265625 L 338.90625 244.707031 L 338.882813 244.675781 C 338.128906 243.71875 336.976563 243.160156 335.761719 243.160156 L 335.644531 243.164063 L 335.730469 245.949219 L 335.730469 243.160156 L 314.347656 243.160156 L 314.347656 245.949219 L 314.402344 243.160156 L 314.328125 243.160156 C 313.253906 243.160156 312.222656 243.597656 311.472656 244.371094 L 311.445313 244.402344 L 305.507813 250.929688 L 296.179688 250.929688 L 290.007813 244.160156 L 289.976563 244.132813 C 289.230469 243.355469 288.199219 242.921875 287.121094 242.921875 L 287.03125 242.921875 L 287.101563 245.707031 L 287.101563 242.921875 L 269.871094 242.921875 L 269.871094 245.707031 L 270.15625 242.933594 C 270.019531 242.921875 269.882813 242.914063 269.75 242.914063 C 269.617188 242.914063 269.480469 242.921875 269.347656 242.933594 L 269.203125 242.949219 L 269.0625 242.976563 L 269.628906 245.707031 L 269.914063 248.480469 L 269.75 246.882813 L 269.75 248.488281 L 269.914063 248.480469 L 269.75 246.882813 L 269.75 248.488281 L 269.75 246.878906 L 269.585938 248.480469 L 269.75 248.488281 L 269.75 246.878906 L 269.585938 248.480469 L 269.726563 248.492188 L 287.175781 248.492188 L 287.121094 246.46875 L 287.121094 248.492188 L 287.175781 248.492188 L 287.121094 246.46875 L 287.121094 248.492188 L 287.121094 246.894531 L 285.972656 248.007813 C 286.273438 248.316406 286.6875 248.492188 287.121094 248.492188 L 287.121094 246.894531 L 285.972656 248.007813 L 287.972656 246.066406 L 285.914063 247.945313 L 293.722656 256.503906 L 307.972656 256.503906 L 315.539063 248.183594 L 313.476563 246.308594 L 315.480469 248.246094 L 314.328125 247.132813 L 314.328125 248.734375 C 314.761719 248.734375 315.179688 248.558594 315.480469 248.246094 L 314.328125 247.132813 L 314.328125 248.734375 L 314.328125 246.980469 L 314.296875 248.734375 L 314.328125 248.734375 L 314.328125 246.980469 L 314.296875 248.734375 L 335.816406 248.734375 L 335.761719 246.949219 L 335.761719 248.734375 L 335.816406 248.734375 L 335.761719 246.949219 L 335.761719 248.734375 L 335.761719 247.132813 L 334.503906 248.125 C 334.808594 248.507813 335.269531 248.734375 335.761719 248.734375 L 335.761719 247.132813 L 334.503906 248.125 L 336.691406 246.398438 L 334.457031 248.0625 L 340.054688 255.597656 L 340.058594 255.605469 L 341.335938 254.644531 L 339.738281 254.644531 C 339.738281 254.984375 339.847656 255.324219 340.058594 255.605469 L 341.335938 254.644531 L 339.738281 254.644531 L 341.335938 254.644531 L 339.816406 254.148438 C 339.765625 254.308594 339.738281 254.476563 339.738281 254.644531 L 341.335938 254.644531 L 339.816406 254.148438 L 339.808594 254.171875 L 320.679688 316.371094 L 330.378906 316.371094 L 330.371094 316.371094 L 330.375 314.769531 L 329.824219 316.273438 C 330 316.335938 330.1875 316.367188 330.371094 316.371094 L 330.375 314.769531 L 329.824219 316.273438 L 330.375 314.769531 L 329.054688 315.675781 C 329.234375 315.9375 329.507813 316.15625 329.824219 316.273438 L 330.375 314.769531 L 329.054688 315.675781 L 330.371094 314.769531 L 328.777344 314.769531 C 328.777344 315.101563 328.875 315.410156 329.054688 315.675781 L 330.371094 314.769531 L 328.777344 314.769531 L 330.371094 314.769531 L 328.871094 314.222656 C 328.808594 314.398438 328.773438 314.589844 328.777344 314.769531 L 330.371094 314.769531 L 328.871094 314.222656 L 331.488281 315.179688 L 328.886719 314.179688 L 326.453125 320.535156 L 326.460938 320.511719 L 327.949219 321.097656 L 327.949219 319.5 C 327.289063 319.5 326.699219 319.902344 326.460938 320.511719 L 327.949219 321.097656 L 327.949219 319.5 L 298.050781 319.5 L 298.050781 322.285156 L 298.136719 319.5 L 298.03125 319.5 L 298.039063 321.796875 L 298.039063 319.5 L 298.03125 319.5 L 298.039063 321.796875 L 298.039063 319.5 L 298.039063 321.101563 L 298.511719 319.570313 C 298.355469 319.523438 298.199219 319.5 298.039063 319.5 L 298.039063 321.101563 L 298.511719 319.570313 L 298.039063 321.101563 L 299.335938 320.15625 C 299.144531 319.890625 298.847656 319.671875 298.511719 319.570313 L 298.039063 321.101563 L 299.335938 320.15625 L 298.042969 321.097656 L 299.640625 321.097656 C 299.640625 320.75 299.53125 320.425781 299.335938 320.15625 L 298.042969 321.097656 L 299.640625 321.097656 L 298.042969 321.097656 L 299.570313 321.566406 C 299.617188 321.414063 299.640625 321.253906 299.640625 321.097656 L 298.042969 321.097656 L 299.570313 321.566406 L 299.5625 321.585938 L 317.003906 266.199219 L 286.925781 266.199219 L 270.84375 316.882813 L 279.585938 316.882813 L 279.585938 314.09375 L 279.535156 316.882813 L 279.5625 315.28125 L 278.972656 316.769531 C 279.152344 316.839844 279.34375 316.878906 279.535156 316.882813 L 279.5625 315.28125 L 278.972656 316.769531 L 279.5625 315.277344 L 278.230469 316.167969 C 278.402344 316.425781 278.667969 316.648438 278.972656 316.769531 L 279.5625 315.277344 L 278.230469 316.167969 L 279.558594 315.28125 L 277.964844 315.28125 C 277.964844 315.605469 278.058594 315.90625 278.230469 316.167969 L 279.558594 315.28125 L 277.964844 315.28125 L 279.5625 315.28125 L 278.074219 314.695313 C 278 314.882813 277.964844 315.085938 277.964844 315.28125 L 279.5625 315.28125 L 278.074219 314.695313 L 280.667969 315.722656 L 278.09375 314.648438 L 275.660156 320.488281 L 275.664063 320.472656 L 277.140625 321.097656 L 277.125 319.5 C 276.488281 319.503906 275.914063 319.886719 275.664063 320.472656 L 277.140625 321.097656 L 277.125 319.5 L 277.148438 319.5 L 249.933594 319.5 L 249.933594 322.285156 L 250.019531 319.5 L 249.914063 319.5 L 249.925781 321.792969 L 249.925781 319.5 L 249.914063 319.5 L 249.925781 321.792969 L 249.925781 319.5 L 249.925781 321.101563 L 250.394531 319.570313 C 250.238281 319.523438 250.082031 319.5 249.925781 319.5 L 249.925781 321.101563 L 250.394531 319.570313 L 249.925781 321.101563 L 251.21875 320.15625 C 251.027344 319.890625 250.730469 319.671875 250.394531 319.570313 L 249.925781 321.101563 L 251.21875 320.15625 L 249.925781 321.097656 L 251.523438 321.097656 C 251.523438 320.75 251.414063 320.425781 251.21875 320.15625 L 249.925781 321.097656 L 251.523438 321.097656 L 249.925781 321.097656 L 251.453125 321.566406 C 251.5 321.414063 251.523438 321.253906 251.523438 321.097656 L 249.925781 321.097656 L 251.453125 321.566406 L 251.449219 321.578125 L 268.636719 266.4375 L 237.335938 266.4375 L 221.492188 316.371094 L 230.234375 316.371094 L 230.234375 313.582031 L 230.207031 316.367188 L 230.222656 314.769531 L 229.710938 316.285156 C 229.871094 316.339844 230.035156 316.367188 230.207031 316.367188 L 230.222656 314.769531 L 229.710938 316.285156 L 230.222656 314.765625 L 228.914063 315.691406 C 229.097656 315.957031 229.386719 316.179688 229.710938 316.285156 L 230.222656 314.765625 L 228.914063 315.691406 L 230.21875 314.769531 L 228.621094 314.769531 C 228.621094 315.109375 228.726563 315.425781 228.914063 315.691406 L 230.21875 314.769531 L 228.621094 314.769531 L 230.21875 314.769531 L 228.703125 314.265625 C 228.648438 314.425781 228.621094 314.601563 228.621094 314.769531 L 230.21875 314.769531 L 228.703125 314.265625 L 228.710938 314.25 L 226.542969 320.605469 L 229.183594 321.503906 L 226.5625 320.554688 L 228.066406 321.097656 L 228.0625 319.5 C 227.386719 319.5 226.789063 319.921875 226.5625 320.554688 L 228.066406 321.097656 L 228.0625 319.5 L 228.070313 319.5 L 199.859375 319.5 L 199.859375 322.285156 L 199.890625 319.5 L 199.871094 321.101563 L 200.382813 319.582031 C 200.222656 319.527344 200.058594 319.5 199.890625 319.5 L 199.871094 321.101563 L 200.382813 319.582031 L 199.871094 321.101563 L 201.179688 320.175781 C 200.996094 319.910156 200.710938 319.691406 200.382813 319.582031 L 199.871094 321.101563 L 201.179688 320.175781 L 199.878906 321.097656 L 201.472656 321.097656 C 201.472656 320.757813 201.367188 320.441406 201.179688 320.175781 L 199.878906 321.097656 L 201.472656 321.097656 L 199.875 321.097656 L 201.390625 321.605469 C 201.445313 321.441406 201.472656 321.269531 201.472656 321.097656 L 199.875 321.097656 L 201.390625 321.605469 L 201.386719 321.613281 L 224.707031 252.796875 L 213.722656 252.796875 L 213.722656 255.585938 L 213.753906 252.796875 L 213.738281 254.398438 L 214.246094 252.882813 C 214.085938 252.828125 213.921875 252.800781 213.753906 252.796875 L 213.738281 254.398438 L 214.246094 252.882813 L 213.738281 254.398438 L 215.042969 253.476563 C 214.859375 253.210938 214.574219 252.988281 214.246094 252.882813 L 213.738281 254.398438 L 215.042969 253.476563 L 213.738281 254.394531 L 215.335938 254.394531 C 215.335938 254.058594 215.230469 253.738281 215.042969 253.476563 L 213.738281 254.394531 L 215.335938 254.394531 L 213.738281 254.394531 L 215.253906 254.902344 C 215.308594 254.742188 215.335938 254.566406 215.335938 254.394531 L 213.738281 254.394531 L 215.253906 254.902344 L 217.691406 247.613281 L 215.046875 246.730469 L 217.667969 247.679688 L 216.164063 247.136719 L 216.167969 248.734375 C 216.839844 248.734375 217.4375 248.308594 217.667969 247.679688 L 216.164063 247.136719 L 216.167969 248.734375 L 216.160156 248.734375 L 242.652344 248.734375 L 242.632813 248.734375 L 242.644531 247.132813 L 241.492188 248.246094 C 241.789063 248.554688 242.199219 248.730469 242.632813 248.734375 L 242.644531 247.132813 L 241.492188 248.246094 L 241.488281 248.242188 L 249.710938 256.773438 L 263.246094 256.773438 L 271.070313 247.925781 L 271.089844 247.90625 L 269.871094 246.867188 L 270.195313 248.4375 C 270.542969 248.363281 270.855469 248.179688 271.089844 247.90625 L 269.871094 246.867188 L 270.195313 248.4375 L 269.628906 245.707031 L 269.914063 248.480469 Z M 162.929688 245.464844 L 162.34375 242.742188 C 160.863281 243.0625 159.691406 244.195313 159.324219 245.664063 L 157.371094 253.433594 C 157.289063 253.753906 157.25 254.078125 157.253906 254.398438 C 157.253906 255.292969 157.554688 256.140625 158.078125 256.820313 C 158.601563 257.503906 159.367188 258.03125 160.261719 258.253906 L 160.265625 258.253906 C 160.570313 258.328125 160.882813 258.367188 161.195313 258.371094 L 166.582031 258.371094 L 144.835938 320.539063 L 144.832031 320.558594 C 144.691406 320.96875 144.625 321.398438 144.625 321.820313 C 144.625 322.65625 144.886719 323.453125 145.355469 324.113281 C 145.820313 324.777344 146.511719 325.3125 147.332031 325.589844 L 147.335938 325.589844 C 147.730469 325.722656 148.140625 325.789063 148.554688 325.796875 L 182.117188 325.796875 L 182.097656 325.796875 L 182.132813 325.796875 C 183.847656 325.796875 185.363281 324.699219 185.90625 323.074219 L 185.914063 323.046875 L 188.121094 315.933594 C 188.238281 315.550781 188.296875 315.15625 188.296875 314.769531 C 188.292969 313.914063 188.019531 313.101563 187.53125 312.429688 C 187.050781 311.761719 186.332031 311.226563 185.484375 310.96875 C 185.109375 310.855469 184.714844 310.796875 184.320313 310.796875 L 184.320313 312.917969 L 184.328125 310.796875 L 184.320313 310.796875 L 184.320313 312.917969 L 184.328125 310.796875 C 184.320313 310.796875 184.269531 310.796875 184.179688 310.800781 L 184.3125 313.582031 L 184.3125 310.796875 L 180.636719 310.796875 L 202.167969 247.925781 L 202.171875 247.917969 C 202.3125 247.503906 202.378906 247.074219 202.378906 246.652344 C 202.378906 245.816406 202.117188 245.023438 201.648438 244.359375 C 201.183594 243.695313 200.492188 243.160156 199.667969 242.886719 C 199.273438 242.753906 198.863281 242.683594 198.445313 242.679688 L 163.171875 242.679688 L 163.171875 245.464844 L 163.457031 242.695313 C 163.320313 242.679688 163.183594 242.671875 163.050781 242.671875 C 162.917969 242.671875 162.78125 242.679688 162.648438 242.695313 L 162.496094 242.710938 L 162.34375 242.742188 L 162.929688 245.464844 L 163.214844 248.238281 L 163.050781 246.644531 L 163.050781 248.246094 L 163.214844 248.238281 L 163.050781 246.644531 L 163.050781 248.246094 L 163.050781 246.640625 L 162.886719 248.238281 L 163.050781 248.246094 L 163.050781 246.640625 L 162.886719 248.238281 L 163.027344 248.253906 L 198.417969 248.253906 L 198.417969 245.464844 L 198.386719 248.253906 L 198.40625 246.652344 L 197.894531 248.171875 C 198.054688 248.222656 198.21875 248.25 198.386719 248.253906 L 198.40625 246.652344 L 197.894531 248.171875 L 198.40625 246.652344 L 197.097656 247.574219 C 197.28125 247.839844 197.570313 248.0625 197.894531 248.171875 L 198.40625 246.652344 L 197.097656 247.574219 L 198.402344 246.652344 L 196.804688 246.652344 C 196.804688 246.992188 196.910156 247.308594 197.097656 247.574219 L 198.402344 246.652344 L 196.804688 246.652344 L 198.402344 246.652344 L 196.886719 246.148438 C 196.832031 246.308594 196.804688 246.484375 196.804688 246.652344 L 198.402344 246.652344 L 196.886719 246.148438 L 196.894531 246.128906 L 172.835938 316.371094 L 184.378906 316.371094 L 184.449219 316.367188 L 184.316406 313.671875 L 184.328125 316.367188 L 184.449219 316.367188 L 184.316406 313.671875 L 184.328125 316.367188 L 184.316406 313.867188 L 184.308594 316.367188 L 184.328125 316.367188 L 184.316406 313.867188 L 184.308594 316.367188 L 184.320313 316.367188 L 184.320313 314.765625 L 183.851563 316.300781 C 184.003906 316.347656 184.160156 316.367188 184.320313 316.367188 L 184.320313 314.765625 L 183.851563 316.300781 L 184.320313 314.765625 L 183.027344 315.710938 C 183.21875 315.976563 183.515625 316.199219 183.851563 316.300781 L 184.320313 314.765625 L 183.027344 315.710938 L 184.316406 314.769531 L 182.722656 314.769531 C 182.722656 315.117188 182.832031 315.441406 183.027344 315.710938 L 184.316406 314.769531 L 182.722656 314.769531 L 184.316406 314.769531 L 182.789063 314.304688 C 182.742188 314.453125 182.722656 314.613281 182.722656 314.769531 L 184.316406 314.769531 L 182.789063 314.304688 L 182.792969 314.292969 L 180.597656 321.367188 L 183.261719 322.195313 L 180.617188 321.316406 L 182.132813 321.820313 L 182.132813 320.222656 C 181.441406 320.222656 180.832031 320.664063 180.617188 321.316406 L 182.132813 321.820313 L 182.132813 320.222656 L 182.132813 321.503906 L 182.140625 320.222656 L 182.132813 320.222656 L 182.132813 321.503906 L 182.140625 320.222656 L 148.585938 320.222656 L 148.585938 323.007813 L 148.617188 320.222656 L 148.597656 321.820313 L 149.109375 320.304688 C 148.949219 320.25 148.78125 320.222656 148.617188 320.222656 L 148.597656 321.820313 L 149.109375 320.304688 L 148.597656 321.824219 L 149.90625 320.898438 C 149.722656 320.632813 149.433594 320.414063 149.109375 320.304688 L 148.597656 321.824219 L 149.90625 320.898438 L 148.601563 321.820313 L 150.199219 321.820313 C 150.199219 321.480469 150.09375 321.164063 149.90625 320.898438 L 148.601563 321.820313 L 150.199219 321.820313 L 148.601563 321.820313 L 150.117188 322.328125 C 150.171875 322.164063 150.199219 321.992188 150.199219 321.820313 L 148.601563 321.820313 L 150.117188 322.328125 L 147.472656 321.441406 L 150.105469 322.363281 L 174.4375 252.796875 L 161.21875 252.796875 L 161.238281 252.796875 L 161.226563 254.394531 L 161.613281 252.84375 C 161.488281 252.8125 161.363281 252.800781 161.238281 252.796875 L 161.226563 254.394531 L 161.613281 252.84375 L 161.226563 254.398438 L 162.492188 253.421875 C 162.285156 253.148438 161.96875 252.933594 161.613281 252.84375 L 161.226563 254.398438 L 162.492188 253.421875 L 161.226563 254.398438 L 162.824219 254.398438 C 162.824219 254.03125 162.703125 253.695313 162.492188 253.421875 L 161.226563 254.398438 L 162.824219 254.398438 L 161.230469 254.398438 L 162.777344 254.78125 C 162.808594 254.65625 162.824219 254.527344 162.824219 254.398438 L 161.230469 254.398438 L 162.777344 254.78125 L 162.777344 254.789063 L 164.730469 247.019531 L 164.730469 247.015625 L 163.179688 246.628906 L 163.515625 248.191406 C 164.113281 248.0625 164.585938 247.605469 164.730469 247.015625 L 163.179688 246.628906 L 163.515625 248.191406 L 162.929688 245.464844 L 163.214844 248.238281 Z M 191.859375 205.054688 L 191.289063 202.324219 C 190.617188 202.46875 189.992188 202.777344 189.476563 203.234375 L 191.320313 205.324219 L 189.503906 203.210938 L 184.363281 207.632813 L 184.332031 207.660156 C 183.820313 208.125 183.441406 208.714844 183.226563 209.371094 L 185.878906 210.234375 L 183.253906 209.296875 L 178.140625 223.632813 L 178.140625 223.628906 C 177.984375 224.0625 177.90625 224.519531 177.90625 224.96875 C 177.90625 225.992188 178.304688 226.996094 179.046875 227.753906 L 179.054688 227.761719 L 182.992188 231.707031 L 183.011719 231.726563 C 183.753906 232.4375 184.738281 232.835938 185.765625 232.835938 L 185.8125 232.835938 L 185.785156 232.835938 L 201.574219 232.835938 L 201.574219 230.046875 L 201.53125 232.835938 L 201.59375 232.835938 C 202.621094 232.835938 203.609375 232.4375 204.347656 231.726563 L 204.371094 231.703125 L 208.515625 227.523438 L 208.511719 227.527344 C 208.984375 227.050781 209.332031 226.464844 209.515625 225.816406 L 209.511719 225.828125 L 213.902344 210.742188 C 214.011719 210.378906 214.0625 210 214.0625 209.628906 C 214.0625 208.589844 213.652344 207.574219 212.898438 206.816406 L 212.898438 206.820313 L 209.480469 203.394531 L 209.460938 203.378906 C 208.722656 202.664063 207.734375 202.265625 206.707031 202.265625 L 206.617188 202.269531 L 206.6875 205.054688 L 206.6875 202.265625 L 192.101563 202.265625 L 192.101563 205.054688 L 192.386719 202.28125 C 192.253906 202.269531 192.117188 202.261719 191.980469 202.261719 C 191.847656 202.261719 191.710938 202.269531 191.574219 202.28125 L 191.433594 202.296875 L 191.289063 202.324219 L 191.859375 205.054688 L 192.148438 207.824219 L 191.980469 206.21875 L 191.980469 207.835938 L 192.148438 207.824219 L 191.980469 206.21875 L 191.980469 207.835938 L 191.980469 206.226563 L 191.816406 207.824219 L 191.980469 207.835938 L 191.980469 206.226563 L 191.816406 207.824219 L 191.960938 207.839844 L 206.757813 207.839844 L 206.707031 205.835938 L 206.707031 207.839844 L 206.757813 207.839844 L 206.707031 205.835938 L 206.707031 207.839844 L 206.707031 206.238281 L 205.597656 207.394531 C 205.894531 207.679688 206.292969 207.839844 206.707031 207.839844 L 206.707031 206.238281 L 205.597656 207.394531 L 207.527344 205.386719 L 205.558594 207.355469 L 208.953125 210.757813 L 208.957031 210.761719 L 210.085938 209.628906 L 208.488281 209.628906 C 208.488281 210.046875 208.652344 210.453125 208.957031 210.761719 L 210.085938 209.628906 L 208.488281 209.628906 L 210.085938 209.628906 L 208.554688 209.183594 C 208.511719 209.328125 208.488281 209.480469 208.488281 209.628906 L 210.085938 209.628906 L 208.554688 209.183594 L 204.160156 224.273438 L 204.15625 224.28125 L 205.695313 224.722656 L 204.5625 223.59375 C 204.371094 223.785156 204.230469 224.023438 204.15625 224.28125 L 205.695313 224.722656 L 204.5625 223.59375 L 200.4375 227.753906 L 202.417969 229.71875 L 200.484375 227.707031 L 201.59375 228.863281 L 201.59375 227.261719 C 201.179688 227.261719 200.78125 227.421875 200.484375 227.707031 L 201.59375 228.863281 L 201.59375 227.261719 L 201.59375 228.789063 L 201.617188 227.261719 L 201.59375 227.261719 L 201.59375 228.789063 L 201.617188 227.261719 L 185.757813 227.261719 L 185.765625 228.652344 L 185.765625 227.261719 L 185.757813 227.261719 L 185.765625 228.652344 L 185.765625 227.261719 L 185.765625 228.863281 L 186.875 227.710938 C 186.578125 227.421875 186.179688 227.261719 185.765625 227.261719 L 185.765625 228.863281 L 186.875 227.710938 L 184.945313 229.71875 L 186.914063 227.746094 L 183.007813 223.832031 L 183.023438 223.851563 L 181.882813 224.96875 L 183.480469 224.96875 C 183.480469 224.558594 183.320313 224.152344 183.023438 223.851563 L 181.882813 224.96875 L 183.480469 224.96875 L 181.882813 224.96875 L 183.386719 225.507813 C 183.449219 225.335938 183.480469 225.148438 183.480469 224.96875 L 181.882813 224.96875 L 183.386719 225.507813 L 188.515625 211.132813 L 188.527344 211.09375 L 187.007813 210.601563 L 188.082031 211.785156 C 188.289063 211.597656 188.441406 211.359375 188.527344 211.09375 L 187.007813 210.601563 L 188.082031 211.785156 L 186.207031 209.722656 L 188.023438 211.835938 L 193.148438 207.429688 L 193.160156 207.414063 L 192.105469 206.214844 L 192.433594 207.78125 C 192.703125 207.726563 192.953125 207.597656 193.160156 207.414063 L 192.105469 206.214844 L 192.433594 207.78125 L 191.859375 205.054688 L 192.148438 207.824219 L 191.859375 205.054688 "/>
<path style=" stroke:none;fill-rule:nonzero;fill:rgb(79.998779%,79.998779%,79.998779%);fill-opacity:1;" d="M 269.871094 246.882813 L 262.5625 255.164063 L 250.414063 255.164063 L 242.652344 247.121094 L 216.160156 247.121094 L 213.722656 254.410156 L 222.476563 254.410156 L 199.859375 321.109375 L 228.070313 321.109375 L 230.234375 314.757813 L 223.679688 314.757813 L 238.503906 268.050781 L 266.472656 268.050781 L 249.933594 321.109375 L 277.148438 321.109375 L 279.585938 315.269531 L 273.027344 315.269531 L 288.09375 267.808594 L 314.828125 267.808594 L 298.050781 321.109375 L 327.941406 321.109375 L 330.378906 314.757813 L 322.828125 314.757813 L 341.324219 254.652344 L 335.730469 247.121094 L 314.347656 247.121094 L 307.28125 254.890625 L 294.410156 254.890625 L 287.101563 246.882813 Z M 163.171875 246.640625 L 161.21875 254.410156 L 172.164063 254.410156 L 148.585938 321.835938 L 182.117188 321.835938 L 184.3125 314.757813 L 175.078125 314.757813 L 198.417969 246.640625 Z M 192.101563 206.226563 L 186.988281 210.625 L 181.878906 224.960938 L 185.785156 228.875 L 201.574219 228.875 L 205.695313 224.71875 L 210.085938 209.632813 L 206.6875 206.226563 L 192.101563 206.226563 "/>
<path style=" stroke:none;fill-rule:nonzero;fill:rgb(0.799561%,0.799561%,0.799561%);fill-opacity:1;" d="M 269.871094 246.882813 L 269.609375 246.652344 L 262.40625 254.8125 L 250.5625 254.8125 L 242.800781 246.773438 L 215.910156 246.773438 L 213.238281 254.757813 L 221.988281 254.757813 L 199.375 321.460938 L 228.316406 321.460938 L 230.722656 314.410156 L 224.152344 314.410156 L 238.757813 268.398438 L 266 268.398438 L 249.460938 321.460938 L 277.378906 321.460938 L 280.105469 314.921875 L 273.503906 314.921875 L 288.351563 268.160156 L 314.355469 268.160156 L 297.574219 321.460938 L 328.179688 321.460938 L 330.882813 314.410156 L 323.300781 314.410156 L 341.710938 254.585938 L 335.90625 246.773438 L 314.195313 246.773438 L 307.128906 254.542969 L 294.5625 254.542969 L 287.257813 246.53125 L 269.714844 246.53125 L 269.609375 246.652344 L 269.871094 246.882813 L 269.871094 247.230469 L 286.949219 247.230469 L 294.257813 255.238281 L 307.433594 255.238281 L 314.503906 247.472656 L 335.554688 247.472656 L 340.9375 254.71875 L 322.355469 315.105469 L 329.871094 315.105469 L 327.703125 320.761719 L 298.523438 320.761719 L 315.304688 267.460938 L 287.839844 267.460938 L 272.550781 315.617188 L 279.0625 315.617188 L 276.914063 320.761719 L 250.40625 320.761719 L 266.945313 267.703125 L 238.25 267.703125 L 223.203125 315.105469 L 229.746094 315.105469 L 227.820313 320.761719 L 200.347656 320.761719 L 222.960938 254.0625 L 214.207031 254.0625 L 216.410156 247.472656 L 242.507813 247.472656 L 250.265625 255.511719 L 262.71875 255.511719 L 270.132813 247.113281 L 269.871094 246.882813 L 269.871094 247.230469 Z M 163.171875 246.640625 L 162.835938 246.554688 L 160.769531 254.757813 L 171.671875 254.757813 L 148.09375 322.183594 L 182.375 322.183594 L 184.785156 314.410156 L 175.566406 314.410156 L 198.90625 246.292969 L 162.898438 246.292969 L 162.835938 246.554688 L 163.171875 246.640625 L 163.171875 246.988281 L 197.929688 246.988281 L 174.59375 315.105469 L 183.839844 315.105469 L 181.859375 321.484375 L 149.078125 321.484375 L 172.652344 254.0625 L 161.664063 254.0625 L 163.507813 246.726563 L 163.171875 246.640625 L 163.171875 246.988281 Z M 192.101563 206.226563 L 191.875 205.964844 L 186.691406 210.421875 L 181.476563 225.050781 L 185.640625 229.222656 L 201.71875 229.222656 L 206.003906 224.898438 L 210.476563 209.53125 L 206.832031 205.878906 L 191.972656 205.878906 L 191.875 205.964844 L 192.101563 206.226563 L 192.101563 206.578125 L 206.542969 206.578125 L 209.691406 209.730469 L 205.386719 224.535156 L 201.429688 228.523438 L 185.929688 228.523438 L 182.277344 224.867188 L 187.285156 210.828125 L 192.328125 206.492188 L 192.101563 206.226563 L 192.101563 206.578125 L 192.101563 206.226563 "/>
</g>
</svg>
